<svg width="400" height="260" viewBox="0 0 400 260" fill="none" xmlns="http://www.w3.org/2000/svg">
  <rect width="400" height="260" rx="28" fill="#4D1417" />
  <circle cx="110" cy="78" r="40" fill="#CAA03F" opacity="0.6" />
  <circle cx="308" cy="68" r="54" fill="#CAA03F" opacity="0.3" />
  <circle cx="322" cy="182" r="62" fill="#CAA03F" opacity="0.18" />
  <rect x="56" y="76" width="288" height="136" rx="22" fill="#F2EFEC" />
  <rect x="80" y="98" width="240" height="88" rx="14" fill="#4D1417" opacity="0.92" />
  <rect x="102" y="118" width="196" height="48" rx="12" fill="#F2EFEC" opacity="0.95" />
  <path d="M212 128H188C182 128 178 132 178 138V146C178 152 182 156 188 156H212C218 156 222 152 222 146V138C222 132 218 128 212 128Z" fill="#CAA03F" />
  <circle cx="138" cy="142" r="10" fill="#CAA03F" />
  <circle cx="260" cy="142" r="10" fill="#CAA03F" />
  <rect x="128" y="212" width="144" height="12" rx="6" fill="#4D1417" opacity="0.35" />
  <rect x="120" y="66" width="12" height="22" rx="6" fill="#F2EFEC" opacity="0.7" />
  <rect x="266" y="58" width="14" height="28" rx="7" fill="#F2EFEC" opacity="0.4" />
  <circle cx="90" cy="186" r="8" fill="#CAA03F" />
  <circle cx="308" cy="98" r="8" fill="#CAA03F" />
  <circle cx="324" cy="138" r="6" fill="#CAA03F" />
</svg>

