<svg width="400" height="260" viewBox="0 0 400 260" fill="none" xmlns="http://www.w3.org/2000/svg">
  <rect width="400" height="260" rx="28" fill="#F2EFEC" />
  <rect x="32" y="32" width="336" height="196" rx="26" fill="#4D1417" />
  <circle cx="200" cy="120" r="56" fill="#CAA03F" opacity="0.8" />
  <circle cx="200" cy="120" r="42" fill="#F2EFEC" />
  <rect x="124" y="108" width="152" height="100" rx="50" fill="#4D1417" opacity="0.85" />
  <rect x="168" y="152" width="64" height="36" rx="18" fill="#CAA03F" opacity="0.7" />
  <rect x="108" y="108" width="24" height="72" rx="12" fill="#F2EFEC" opacity="0.9" />
  <rect x="268" y="108" width="24" height="72" rx="12" fill="#F2EFEC" opacity="0.9" />
  <rect x="88" y="88" width="40" height="112" rx="20" fill="#CAA03F" opacity="0.45" />
  <rect x="272" y="88" width="40" height="112" rx="20" fill="#CAA03F" opacity="0.45" />
  <rect x="96" y="64" width="208" height="24" rx="12" fill="#F2EFEC" opacity="0.6" />
  <rect x="148" y="180" width="104" height="10" rx="5" fill="#F2EFEC" opacity="0.65" />
  <rect x="132" y="204" width="136" height="10" rx="5" fill="#CAA03F" opacity="0.35" />
</svg>

