<svg width="420" height="320" viewBox="0 0 420 320" fill="none" xmlns="http://www.w3.org/2000/svg">
  <rect width="420" height="320" rx="24" fill="#F2EFEC" />
  <rect x="24" y="24" width="372" height="64" rx="16" fill="#4D1417" />
  <rect x="24" y="112" width="180" height="184" rx="18" fill="#FFFFFF" stroke="#4D1417" stroke-opacity="0.1" stroke-width="2" />
  <rect x="216" y="112" width="180" height="88" rx="18" fill="#FFFFFF" stroke="#4D1417" stroke-opacity="0.1" stroke-width="2" />
  <rect x="216" y="212" width="180" height="84" rx="18" fill="#FFFFFF" stroke="#4D1417" stroke-opacity="0.1" stroke-width="2" />
  <rect x="40" y="132" width="148" height="20" rx="6" fill="#4D1417" opacity="0.85" />
  <rect x="40" y="164" width="120" height="12" rx="6" fill="#CAA03F" opacity="0.8" />
  <rect x="40" y="188" width="80" height="12" rx="6" fill="#CAA03F" opacity="0.5" />
  <rect x="40" y="212" width="128" height="12" rx="6" fill="#CAA03F" opacity="0.65" />
  <rect x="40" y="236" width="96" height="12" rx="6" fill="#CAA03F" opacity="0.35" />
  <rect x="232" y="132" width="60" height="12" rx="6" fill="#4D1417" opacity="0.8" />
  <rect x="232" y="154" width="128" height="10" rx="5" fill="#CAA03F" opacity="0.7" />
  <rect x="232" y="176" width="104" height="10" rx="5" fill="#CAA03F" opacity="0.4" />
  <rect x="232" y="228" width="104" height="10" rx="5" fill="#CAA03F" opacity="0.7" />
  <rect x="232" y="248" width="92" height="10" rx="5" fill="#CAA03F" opacity="0.5" />
  <rect x="232" y="268" width="72" height="10" rx="5" fill="#CAA03F" opacity="0.35" />
  <circle cx="72" cy="60" r="12" fill="#CAA03F" opacity="0.8" />
  <circle cx="104" cy="60" r="12" fill="#CAA03F" opacity="0.6" />
  <circle cx="136" cy="60" r="12" fill="#CAA03F" opacity="0.4" />
</svg>

