<svg width="400" height="400" viewBox="0 0 400 400" fill="none" xmlns="http://www.w3.org/2000/svg">
  <rect width="400" height="400" rx="48" fill="#F2EFEC" />
  <circle cx="200" cy="150" r="80" fill="#CAA03F" opacity="0.8" />
  <path d="M200 208C148 208 104 252 104 304H296C296 252 252 208 200 208Z" fill="#4D1417" opacity="0.85" />
  <circle cx="200" cy="146" r="60" fill="#4D1417" opacity="0.95" />
  <path d="M200 92C230 92 256 118 256 148C256 162 252 174 244 184C244 156 230 136 200 136C170 136 156 156 156 184C148 174 144 162 144 148C144 118 170 92 200 92Z" fill="#CAA03F" opacity="0.6" />
</svg>

