<svg width="1200" height="768" viewBox="0 0 1200 768" fill="none" xmlns="http://www.w3.org/2000/svg">
  <rect width="1200" height="768" rx="48" fill="#F2EFEC" />
  <rect x="120" y="180" width="960" height="456" rx="36" fill="#FFFFFF" />
  <rect x="180" y="240" width="420" height="300" rx="36" fill="#CAA03F" opacity="0.8" />
  <rect x="200" y="260" width="380" height="260" rx="28" fill="#F2EFEC" />
  <rect x="218" y="390" width="344" height="108" rx="32" fill="#4D1417" opacity="0.85" />
  <rect x="600" y="300" width="360" height="240" rx="28" fill="#4D1417" opacity="0.85" />
  <rect x="640" y="332" width="280" height="176" rx="24" fill="#CAA03F" opacity="0.8" />
  <rect x="660" y="356" width="240" height="120" rx="18" fill="#F2EFEC" opacity="0.9" />
  <circle cx="352" cy="328" r="80" fill="#4D1417" opacity="0.9" />
  <circle cx="332" cy="302" r="64" fill="#2E0A0D" />
  <circle cx="284" cy="366" r="56" fill="#CAA03F" opacity="0.9" />
  <circle cx="760" cy="360" r="70" fill="#4D1417" />
  <circle cx="828" cy="380" r="58" fill="#CAA03F" opacity="0.75" />
  <rect x="520" y="520" width="260" height="40" rx="20" fill="#CAA03F" opacity="0.6" />
  <rect x="520" y="572" width="340" height="28" rx="14" fill="#4D1417" opacity="0.25" />
  <rect x="780" y="572" width="220" height="28" rx="14" fill="#CAA03F" opacity="0.35" />
  <text x="640" y="640" font-family="'Inter', sans-serif" font-weight="700" font-size="48" fill="#4D1417">Find the Right Tutor</text>
  <text x="640" y="692" font-family="'Inter', sans-serif" font-weight="500" font-size="36" fill="#4D1417">Anytime • Anywhere</text>
</svg>

