<svg width="400" height="260" viewBox="0 0 400 260" fill="none" xmlns="http://www.w3.org/2000/svg">
  <rect width="400" height="260" rx="28" fill="#4D1417" />
  <rect x="24" y="24" width="352" height="212" rx="24" fill="#F2EFEC" />
  <path d="M170 140C150 140 134 156 134 176V208H266V176C266 156 250 140 230 140H170Z" fill="#CAA03F" opacity="0.65" />
  <circle cx="200" cy="108" r="44" fill="#4D1417" opacity="0.92" />
  <circle cx="200" cy="96" r="40" fill="#CAA03F" opacity="0.75" />
  <rect x="98" y="176" width="204" height="18" rx="9" fill="#4D1417" opacity="0.8" />
  <rect x="150" y="188" width="100" height="10" rx="5" fill="#F2EFEC" />
  <rect x="140" y="88" width="120" height="16" rx="8" fill="#F2EFEC" opacity="0.9" />
  <rect x="152" y="104" width="96" height="14" rx="7" fill="#F2EFEC" opacity="0.75" />
  <rect x="88" y="208" width="224" height="12" rx="6" fill="#4D1417" opacity="0.4" />
  <rect x="72" y="36" width="128" height="84" rx="14" fill="#4D1417" />
  <rect x="84" y="48" width="104" height="60" rx="10" fill="#F2EFEC" opacity="0.8" />
  <rect x="220" y="44" width="108" height="96" rx="16" fill="#CAA03F" opacity="0.85" />
  <rect x="236" y="60" width="76" height="64" rx="12" fill="#F2EFEC" opacity="0.9" />
</svg>

